<svg xmlns="http://www.w3.org/2000/svg" width="1200" height="340" viewBox="0 0 1200 340" role="img" aria-labelledby="title desc"><title id="title">Durable local continuity</title><desc id="desc">The local adopted-state snapshot is durable while Web ChatGPT conversations can be reused or replaced.</desc><defs><linearGradient id="panel" x1="0" y1="0" x2="1" y2="1"><stop offset="0" stop-color="#0D172A"/><stop offset="1" stop-color="#15152C"/></linearGradient></defs><rect width="1200" height="340" rx="28" fill="url(#panel)"/><text x="56" y="60" fill="#FFFFFF" font-size="33" font-weight="760" font-family="-apple-system, BlinkMacSystemFont, Segoe UI, sans-serif">Continuity lives locally</text><text x="56" y="93" fill="#93A5C8" font-size="16" font-family="ui-monospace, SFMono-Regular, Menlo, monospace">DURABLE ADOPTED STATE  ≠  BROWSER CONVERSATION HISTORY</text><g transform="translate(56 130)" font-family="-apple-system, BlinkMacSystemFont, Segoe UI, sans-serif"><rect width="410" height="154" rx="22" fill="#111E36" stroke="#36517B"/><circle cx="38" cy="38" r="15" fill="#54E1C1" opacity=".18"/><path d="M31 38L36 43L46 32" fill="none" stroke="#54E1C1" stroke-width="3" stroke-linecap="round" stroke-linejoin="round"/><text x="68" y="44" fill="#FFFFFF" font-size="20" font-weight="720">Local consultation snapshot</text><text x="28" y="82" fill="#AFC0DF" font-size="15">accepted decisions · standing constraints</text><text x="28" y="108" fill="#AFC0DF" font-size="15">open questions · evidence references</text><text x="28" y="134" fill="#778CAF" font-size="13" font-family="ui-monospace, SFMono-Regular, Menlo, monospace">~/.codex/webgpt-consult/state/...</text><path d="M452 77H566" stroke="#7C8CFF" stroke-width="3" stroke-linecap="round"/><path d="M556 68L568 77L556 86" fill="none" stroke="#7C8CFF" stroke-width="3"/><g transform="translate(586)"><rect width="500" height="154" rx="22" fill="#0A1222" stroke="#2A3B5F"/><text x="28" y="38" fill="#8EA2C8" font-size="14" font-family="ui-monospace, SFMono-Regular, Menlo, monospace">WEB CONVERSATIONS</text><g transform="translate(28 58)"><rect width="126" height="66" rx="16" fill="#15233C" stroke="#32496F"/><text x="18" y="28" fill="#FFFFFF" font-size="15" font-weight="700">Current</text><text x="18" y="49" fill="#8095BA" font-size="12">reuse if healthy</text></g><path d="M170 91H205" stroke="#596D94" stroke-width="2.4"/><path d="M198 84L207 91L198 98" fill="none" stroke="#596D94" stroke-width="2.4"/><g transform="translate(218 58)"><rect width="126" height="66" rx="16" fill="#15233C" stroke="#32496F"/><text x="18" y="28" fill="#FFFFFF" font-size="15" font-weight="700">Context full</text><text x="18" y="49" fill="#8095BA" font-size="12">discard container</text></g><path d="M360 91H395" stroke="#596D94" stroke-width="2.4"/><path d="M388 84L397 91L388 98" fill="none" stroke="#596D94" stroke-width="2.4"/><g transform="translate(408 58)"><rect width="64" height="66" rx="16" fill="#1A2840" stroke="#54E1C1"/><text x="17" y="28" fill="#54E1C1" font-size="15" font-weight="700">New</text><text x="17" y="49" fill="#8095BA" font-size="12">restore</text></g></g></g></svg>